<?xml version="1.0" standalone="no"?>
<!DOCTYPE svg PUBLIC "-//W3C//DTD SVG 20010904//EN"
 "http://www.w3.org/TR/2001/REC-SVG-20010904/DTD/svg10.dtd">
<svg version="1.0" xmlns="http://www.w3.org/2000/svg"
 width="260.000000pt" height="260.000000pt" viewBox="0 0 260.000000 260.000000"
 preserveAspectRatio="xMidYMid meet">
<metadata>
Created by potrace 1.11, written by Peter Selinger 2001-2013
</metadata>
<g transform="translate(0.000000,260.000000) scale(0.100000,-0.100000)"
fill="#000000" stroke="none">
<path d="M1124 2489 c-170 -30 -239 -52 -366 -115 -110 -54 -192 -112 -289
-206 -202 -195 -310 -402 -358 -686 -41 -246 8 -533 129 -756 156 -287 456
-521 756 -591 10 -2 37 -9 59 -14 197 -47 438 -30 646 45 89 32 174 70 209 94
14 9 50 34 81 54 64 42 198 169 256 241 53 66 126 188 157 263 26 62 73 214
80 261 3 14 7 45 11 67 11 72 13 184 4 263 -13 114 -23 160 -56 266 -97 307
-336 578 -634 717 -56 26 -197 74 -246 82 -14 3 -51 10 -81 17 -88 18 -249 17
-358 -2z m326 -464 c77 -16 220 -72 220 -85 0 -5 -70 -118 -156 -251 -184
-286 -281 -444 -318 -517 -29 -58 -29 -62 23 -108 23 -21 83 -44 114 -44 27 0
133 184 377 655 46 88 85 162 87 165 8 9 107 -105 142 -164 19 -32 48 -94 65
-139 28 -77 30 -91 30 -232 1 -131 -2 -159 -22 -219 -81 -240 -251 -413 -484
-491 -108 -36 -267 -45 -377 -21 -69 15 -97 25 -176 69 -16 9 -47 24 -68 33
-54 24 -169 135 -222 214 -158 237 -167 541 -24 783 76 128 214 251 345 307
131 57 305 74 444 45z"/>
<path d="M1121 1033 c-75 -152 -141 -305 -141 -326 0 -53 66 -91 108 -61 19
13 216 296 228 327 3 10 -9 18 -40 27 -25 7 -63 28 -85 46 -21 19 -41 34 -43
34 -2 0 -15 -21 -27 -47z"/>
</g>
</svg>
